<?xml version="1.0" standalone="no"?>
<!DOCTYPE svg PUBLIC "-//W3C//DTD SVG 20010904//EN"
 "http://www.w3.org/TR/2001/REC-SVG-20010904/DTD/svg10.dtd">
<svg version="1.0" xmlns="http://www.w3.org/2000/svg"
 width="650.000000pt" height="650.000000pt" viewBox="0 0 650.000000 650.000000"
 preserveAspectRatio="xMidYMid meet">

<g transform="translate(0.000000,650.000000) scale(0.100000,-0.100000)"
fill="#000000" stroke="none">
<path d="M3985 2425 c-371 -53 -605 -145 -925 -366 -368 -255 -530 -347 -681
-389 -67 -19 -110 -24 -210 -24 l-126 -1 10 -35 c28 -102 108 -209 204 -273
237 -158 610 -168 993 -27 63 23 146 58 184 77 37 19 70 33 72 30 9 -8 -167
-174 -259 -243 -112 -85 -283 -172 -402 -206 -67 -19 -104 -23 -230 -23 -138
1 -156 3 -229 28 -230 81 -389 231 -621 587 -48 74 -99 152 -113 173 -14 21
-63 73 -108 116 -120 114 -278 189 -453 216 l-43 7 7 -33 c26 -120 156 -451
252 -642 271 -542 602 -881 992 -1016 111 -38 202 -52 371 -58 322 -11 587 43
855 172 94 46 256 141 297 174 7 6 48 38 91 72 335 264 650 721 820 1190 49
134 102 326 113 407 7 59 15 54 -131 78 -140 23 -593 28 -730 9z m172 -61 c-3
-3 -12 -4 -19 -1 -8 3 -5 6 6 6 11 1 17 -2 13 -5z"/>
<path d="M1332 2249 c2 -8 24 -66 47 -129 l43 -115 60 -35 c87 -50 172 -146
278 -316 51 -82 125 -192 164 -244 70 -92 251 -290 266 -290 5 0 -14 37 -41
83 -100 166 -215 406 -299 622 -86 221 -200 348 -364 405 -81 28 -161 38 -154
19z"/>
<path d="M1744 2173 c3 -28 29 -94 62 -158 30 -60 82 -175 115 -255 l60 -145
-5 165 c-6 264 -44 344 -195 420 l-44 22 7 -49z"/>
</g>
</svg>
